<svg width="35" height="35" viewBox="0 0 35 35" fill="none" xmlns="http://www.w3.org/2000/svg">
<g clip-path="url(#clip0_5013_24658)">
<path d="M18.3631 15.2152C18.3631 16.2608 17.7254 16.8623 16.6011 16.8623H15.1245V13.5691H16.6076C17.7254 13.5691 18.3631 14.1641 18.3631 15.2152ZM21.2495 19.0192C21.2495 19.5234 21.687 19.8516 22.3739 19.8516C23.2489 19.8516 23.9051 19.2992 23.9051 18.5205V18.0523L22.4767 18.1431C21.6684 18.1978 21.2495 18.4953 21.2495 19.0181V19.0192ZM35.0001 6.74516V28.1345C34.9998 28.9081 34.6924 29.6499 34.1454 30.1969C33.5984 30.7439 32.8566 31.0513 32.0831 31.0516H2.91605C2.1425 31.0513 1.40071 30.7439 0.853722 30.1969C0.306736 29.6499 -0.000686678 28.9081 -0.000976562 28.1345V6.74516C-0.000686678 5.9716 0.306736 5.22981 0.853722 4.68282C1.40071 4.13584 2.1425 3.82841 2.91605 3.82812H32.0831C32.8566 3.82841 33.5984 4.13584 34.1454 4.68282C34.6924 5.22981 34.9998 5.9716 35.0001 6.74516ZM7.76574 13.9267C8.27652 13.9694 8.78621 13.6719 9.10887 13.2945C9.42496 12.9052 9.63168 12.3834 9.57699 11.8541C9.12746 11.8727 8.56855 12.1516 8.2459 12.5409C7.95387 12.8756 7.70559 13.4159 7.76574 13.9267ZM11.4484 18.4537C11.4364 18.4417 10.2573 17.9922 10.2453 16.6305C10.2332 15.4941 11.175 14.9472 11.2176 14.9166C10.6828 14.1269 9.8559 14.0416 9.57043 14.023C8.82887 13.9803 8.19668 14.4419 7.84449 14.4419C7.48574 14.4419 6.9509 14.0405 6.36793 14.0536C5.98732 14.0637 5.616 14.1733 5.29093 14.3716C4.96586 14.5698 4.69838 14.8497 4.51512 15.1834C3.71887 16.5572 4.3084 18.5861 5.08059 19.7039C5.45684 20.2562 5.91293 20.8644 6.50902 20.8403C7.0734 20.8163 7.29871 20.4761 7.97902 20.4761C8.6659 20.4761 8.86059 20.8403 9.45559 20.8348C10.0757 20.8228 10.4586 20.2825 10.8414 19.7291C11.2603 19.0969 11.4364 18.4898 11.4495 18.4527L11.4484 18.4537ZM19.6756 15.2097C19.6756 13.5931 18.5512 12.4873 16.9467 12.4873H13.8361V20.7758H15.1245V17.9441H16.9051C18.5337 17.9441 19.6756 16.8263 19.6756 15.2097ZM25.1443 16.6491C25.1443 15.4525 24.184 14.6803 22.714 14.6803C21.3468 14.6803 20.3384 15.4645 20.3012 16.5331H21.4617C21.559 16.0223 22.0326 15.6888 22.6768 15.6888C23.4665 15.6888 23.904 16.053 23.904 16.7344V17.1905L22.2995 17.2878C20.8043 17.3786 19.9971 17.9933 19.9971 19.0564C19.9971 20.1316 20.8295 20.8425 22.0261 20.8425C22.8343 20.8425 23.5814 20.4356 23.9215 19.7848H23.9456V20.7812H25.1367V16.6491H25.1443ZM31.3546 14.7591H30.0487L28.5361 19.6569H28.512L26.9993 14.7591H25.6442L27.8251 20.7933L27.7103 21.1575C27.5156 21.7777 27.194 22.0205 26.6231 22.0205C26.4971 22.0181 26.3713 22.0119 26.2457 22.0019V22.9983C26.319 23.0223 26.6406 23.0289 26.7379 23.0289C27.9957 23.0289 28.5853 22.5487 29.1015 21.0963L31.3546 14.7591Z" fill="black"/>
</g>
<defs>
<clipPath id="clip0_5013_24658">
<rect width="35" height="35" fill="white"/>
</clipPath>
</defs>
</svg>
