<svg width="35" height="24" viewBox="0 0 35 24" fill="none" xmlns="http://www.w3.org/2000/svg">
<path d="M18.1896 10.0387C18.1896 10.9605 17.6275 11.4909 16.6362 11.4909H15.3345V8.58755H16.642C17.6275 8.58755 18.1896 9.11209 18.1896 10.0387ZM20.7343 13.3924C20.7343 13.8369 21.12 14.1262 21.7255 14.1262C22.4969 14.1262 23.0755 13.6392 23.0755 12.9527V12.54L21.8162 12.62C21.1036 12.6682 20.7343 12.9315 20.7343 13.3924ZM32.8567 2.57164V21.4284C32.8565 22.1103 32.5855 22.7643 32.1032 23.2465C31.621 23.7287 30.9671 23.9997 30.2851 24H4.57164C3.88967 23.9997 3.23572 23.7287 2.7535 23.2465C2.27128 22.7643 2.00026 22.1103 2 21.4284V2.57164C2.00026 1.88967 2.27128 1.23572 2.7535 0.753497C3.23572 0.271277 3.88967 0.00025556 4.57164 0H30.2851C30.9671 0.00025556 31.621 0.271277 32.1032 0.753497C32.5855 1.23572 32.8565 1.88967 32.8567 2.57164ZM8.84709 8.90285C9.29739 8.94046 9.74673 8.67818 10.0312 8.34552C10.3098 8.00225 10.4921 7.54231 10.4439 7.07561C10.0476 7.09201 9.55484 7.33789 9.27039 7.68116C9.01294 7.97622 8.79405 8.45255 8.84709 8.90285ZM12.0937 12.8939C12.0831 12.8832 11.0436 12.4869 11.033 11.2865C11.0224 10.2846 11.8526 9.80249 11.8902 9.77549C11.4187 9.07931 10.6898 9.0041 10.4381 8.98771C9.78433 8.9501 9.227 9.35701 8.91651 9.35701C8.60024 9.35701 8.12873 9.00313 7.61479 9.0147C7.27924 9.02362 6.95189 9.12027 6.66531 9.29502C6.37873 9.46978 6.14292 9.71655 5.98136 10.0108C5.27939 11.2219 5.79912 13.0105 6.47987 13.996C6.81157 14.4829 7.21366 15.019 7.73917 14.9978C8.23672 14.9766 8.43536 14.6767 9.03512 14.6767C9.64066 14.6767 9.8123 14.9978 10.3368 14.993C10.8836 14.9824 11.2211 14.5061 11.5585 14.0182C11.9278 13.4608 12.0831 12.9257 12.0947 12.8929L12.0937 12.8939ZM19.3467 10.0339C19.3467 8.60876 18.3555 7.63391 16.9409 7.63391H14.1986V14.9409H15.3345V12.4445H16.9043C18.3401 12.4445 19.3467 11.4591 19.3467 10.0339ZM24.1679 11.3029C24.1679 10.248 23.3213 9.56722 22.0254 9.56722C20.8201 9.56722 19.9311 10.2586 19.8983 11.2006H20.9213C21.0072 10.7503 21.4247 10.4562 21.9926 10.4562C22.6888 10.4562 23.0745 10.7773 23.0745 11.3781V11.7802L21.6599 11.866C20.3418 11.946 19.6302 12.4879 19.6302 13.4252C19.6302 14.373 20.364 14.9998 21.4189 14.9998C22.1315 14.9998 22.79 14.6411 23.0899 14.0673H23.1111V14.9458H24.1612V11.3029H24.1679ZM29.6429 9.63664H28.4916L27.1581 13.9545H27.1368L25.8033 9.63664H24.6086L26.5313 14.9564L26.4301 15.2775C26.2584 15.8242 25.9749 16.0382 25.4716 16.0382C25.3606 16.0362 25.2496 16.0307 25.1389 16.0219V16.9003C25.2035 16.9215 25.487 16.9273 25.5728 16.9273C26.6817 16.9273 27.2014 16.504 27.6566 15.2235L29.6429 9.63664Z" fill="black"/>
</svg>
