<svg width="108" height="108" viewBox="0 0 108 108" fill="none" xmlns="http://www.w3.org/2000/svg">
<circle cx="54" cy="54" r="54" fill="#69AF6B"/>
<path d="M25.0752 51.2727L82.9248 51.2727C83.8933 51.2727 84.2962 50.0336 83.513 49.464L54.5882 28.4278C54.2375 28.1727 53.7625 28.1727 53.4118 28.4278L24.487 49.464C23.7038 50.0336 24.1067 51.2727 25.0752 51.2727Z" stroke="white" stroke-width="3"/>
<rect x="36.5454" y="51.2727" width="11.6364" height="20.3636" stroke="white" stroke-width="3"/>
<rect x="59.8181" y="51.2727" width="11.6364" height="20.3636" stroke="white" stroke-width="3"/>
<path d="M73.8285 71.6365C74.1629 71.6365 74.4751 71.8036 74.6606 72.0818L79.1454 78.8091C79.5885 79.4736 79.1121 80.3637 78.3134 80.3637L29.6868 80.3637C28.8881 80.3637 28.4117 79.4736 28.8547 78.809L33.3396 72.0818C33.525 71.8036 33.8373 71.6365 34.1716 71.6365L73.8285 71.6365Z" stroke="white" stroke-width="3"/>
</svg>
