<svg width="31" height="32" viewBox="0 0 31 32" fill="none" xmlns="http://www.w3.org/2000/svg">
<path d="M15.5833 31.1335C23.6375 31.1335 30.1667 24.3879 30.1667 16.0668C30.1667 7.74562 23.6375 1 15.5833 1C7.52918 1 1 7.74562 1 16.0668C1 24.3879 7.52918 31.1335 15.5833 31.1335Z" stroke="#69AF6B"/>
<path d="M9.16589 14.6666L21.8341 14.6666C22.8112 14.6666 23.2084 13.4093 22.4085 12.8481L16.0744 8.4031C15.7297 8.16118 15.2703 8.16118 14.9256 8.4031L8.59146 12.8481C7.79164 13.4093 8.18878 14.6666 9.16589 14.6666Z" stroke="#69AF6B"/>
<rect x="10.3184" y="14.667" width="3.45455" height="5.83329" stroke="#69AF6B"/>
<rect x="17.2275" y="14.667" width="3.45455" height="5.83329" stroke="#69AF6B"/>
<path d="M21.0206 20.5C21.3491 20.5 21.6566 20.6613 21.8434 20.9316L22.1888 21.4315C22.6471 22.0949 22.1723 23 21.3661 23L9.63339 23C8.82716 23 8.35237 22.0949 8.81066 21.4315L9.15611 20.9316C9.34282 20.6613 9.65036 20.5 9.97883 20.5L21.0206 20.5Z" stroke="#69AF6B"/>
</svg>
