<svg width="38" height="34" viewBox="0 0 38 34" fill="none" xmlns="http://www.w3.org/2000/svg">
<path d="M3.07504 14.7912L34.8506 14.7912C35.8191 14.7912 36.222 13.5521 35.4388 12.9825L19.551 1.42776C19.2003 1.17274 18.7253 1.17274 18.3746 1.42776L2.48687 12.9825C1.70362 13.5521 2.10656 14.7912 3.07504 14.7912Z" stroke="#69AF6B" stroke-width="2"/>
<rect x="8.61963" y="14.7915" width="6.89562" height="12.0673" stroke="#69AF6B" stroke-width="2"/>
<rect x="22.4106" y="14.7915" width="6.89562" height="12.0673" stroke="#69AF6B" stroke-width="2"/>
<path d="M30.495 26.8589C30.8294 26.8589 31.1416 27.026 31.3271 27.3042L33.4416 30.4759C33.8846 31.1405 33.4082 32.0306 32.6095 32.0306L5.31624 32.0306C4.51755 32.0306 4.04115 31.1405 4.48419 30.4759L6.59867 27.3042C6.78414 27.026 7.09637 26.8589 7.43072 26.8589L30.495 26.8589Z" stroke="#69AF6B" stroke-width="2"/>
</svg>
