<svg width="24" height="24" viewBox="0 0 24 24" fill="none" xmlns="http://www.w3.org/2000/svg">
<path d="M6.02394 9.59016C6.01237 9.78234 6.00659 9.98172 6.00659 10.1883C6.00659 14.25 5.15628 15 3.953 16.4733C3.45425 17.0836 3.89065 18 4.76347 18H15M19.4297 15.7172C18.5635 14.618 17.9944 13.5117 17.9944 10.1859C17.9944 6.46875 16.095 5.14359 14.5313 4.5C14.3236 4.41469 14.1282 4.21875 14.0649 4.00547C13.7911 3.07219 13.0228 2.25 12 2.25C10.9772 2.25 10.2094 3.07266 9.93753 4.00641C9.87425 4.22203 9.67878 4.41469 9.46878 4.5C9.17864 4.61833 8.89676 4.75599 8.62503 4.91203M15 18V18.75C15 19.5456 14.684 20.3087 14.1213 20.8713C13.5587 21.4339 12.7957 21.75 12 21.75C11.2044 21.75 10.4413 21.4339 9.87871 20.8713C9.3161 20.3087 9.00003 19.5456 9.00003 18.75V18" stroke="#666672" stroke-width="2" stroke-linecap="round" stroke-linejoin="round"/>
<path d="M21 21L3 3" stroke="#666672" stroke-width="1.875" stroke-miterlimit="10" stroke-linecap="round"/>
</svg>
