<svg width="24" height="24" viewBox="0 0 24 24" fill="none" xmlns="http://www.w3.org/2000/svg">
<path d="M14.6958 17.75V18.5C14.6958 19.2957 14.3955 20.0587 13.861 20.6213C13.3265 21.1839 12.6015 21.5 11.8455 21.5C11.0896 21.5 10.3646 21.1839 9.83006 20.6213C9.29552 20.0587 8.99522 19.2957 8.99522 18.5V17.75M19.4915 16.2233C18.3478 14.75 17.5404 14 17.5404 9.93828C17.5404 6.21875 15.7358 4.89359 14.2505 4.25C14.0532 4.16469 13.8675 3.96875 13.8073 3.75547C13.5468 2.82219 12.8164 2 11.8455 2C10.8746 2 10.1438 2.82266 9.88594 3.75641C9.82582 3.97203 9.6401 4.16469 9.44281 4.25C7.95575 4.89453 6.15293 6.215 6.15293 9.93828C6.1507 14 5.34326 14.75 4.19957 16.2233C3.72571 16.8336 4.14079 17.75 4.9696 17.75H18.7259C19.5503 17.75 19.9627 16.8308 19.4915 16.2233Z" stroke="#666672" stroke-width="2" stroke-linecap="round" stroke-linejoin="round"/>
</svg>
