<svg width="37" height="28" viewBox="0 0 37 28" fill="none" xmlns="http://www.w3.org/2000/svg">
<path d="M0 4.625C0 3.39837 0.487275 2.22199 1.35463 1.35463C2.22199 0.487275 3.39837 0 4.625 0H32.375C33.6016 0 34.778 0.487275 35.6454 1.35463C36.5127 2.22199 37 3.39837 37 4.625V23.125C37 24.3516 36.5127 25.528 35.6454 26.3954C34.778 27.2627 33.6016 27.75 32.375 27.75H4.625C3.39837 27.75 2.22199 27.2627 1.35463 26.3954C0.487275 25.528 0 24.3516 0 23.125V4.625ZM4.625 2.3125C4.01169 2.3125 3.42349 2.55614 2.98982 2.98982C2.55614 3.42349 2.3125 4.01169 2.3125 4.625V6.9375H34.6875V4.625C34.6875 4.01169 34.4439 3.42349 34.0102 2.98982C33.5765 2.55614 32.9883 2.3125 32.375 2.3125H4.625ZM34.6875 11.5625H2.3125V23.125C2.3125 23.7383 2.55614 24.3265 2.98982 24.7602C3.42349 25.1939 4.01169 25.4375 4.625 25.4375H32.375C32.9883 25.4375 33.5765 25.1939 34.0102 24.7602C34.4439 24.3265 34.6875 23.7383 34.6875 23.125V11.5625Z" fill="#69AF6B"/>
<path d="M4.625 18.5C4.625 17.8867 4.86864 17.2985 5.30232 16.8648C5.73599 16.4311 6.32419 16.1875 6.9375 16.1875H9.25C9.86331 16.1875 10.4515 16.4311 10.8852 16.8648C11.3189 17.2985 11.5625 17.8867 11.5625 18.5V20.8125C11.5625 21.4258 11.3189 22.014 10.8852 22.4477C10.4515 22.8814 9.86331 23.125 9.25 23.125H6.9375C6.32419 23.125 5.73599 22.8814 5.30232 22.4477C4.86864 22.014 4.625 21.4258 4.625 20.8125V18.5Z" fill="#69AF6B"/>
</svg>
