<svg width="24" height="24" viewBox="0 0 24 24" fill="none" xmlns="http://www.w3.org/2000/svg">
<path fill-rule="evenodd" clip-rule="evenodd" d="M12 24C18.6274 24 24 18.6274 24 12C24 5.37258 18.6274 0 12 0C5.37258 0 0 5.37258 0 12C0 18.6274 5.37258 24 12 24ZM16.8989 9.50871C17.1799 9.20434 17.1609 8.72985 16.8565 8.4489C16.5522 8.16794 16.0777 8.18692 15.7967 8.49129L10.3249 14.4191C10.2211 14.5316 10.0415 14.5252 9.94594 14.4058L8.58565 12.7054C8.32689 12.3819 7.85493 12.3295 7.53148 12.5883C7.20803 12.847 7.15559 13.319 7.41435 13.6424L8.77463 15.3428C9.44376 16.1792 10.7005 16.2236 11.4271 15.4366L16.8989 9.50871Z" fill="#69AF6B"/>
</svg>
