<svg width="128" height="128" viewBox="0 0 128 128" fill="none" xmlns="http://www.w3.org/2000/svg">
<path d="M112.71 64.0299C112.71 90.9099 90.9101 112.71 64.0301 112.71C37.1501 112.71 15.3601 90.9099 15.3601 64.0299C15.3601 37.1499 37.1501 15.3599 64.0301 15.3599C90.9101 15.3599 112.71 37.1499 112.71 64.0299Z" fill="#69AF6B"/>
<path d="M53.7801 83.1998C52.8001 83.1998 51.8201 82.8298 51.0701 82.0798L38.2501 69.2798C36.7501 67.7798 36.7401 65.3498 38.2401 63.8498C39.7401 62.3398 42.1701 62.3398 43.6701 63.8398L53.7801 73.9298L84.3501 43.3698C85.8501 41.8598 88.2801 41.8598 89.7801 43.3698C91.2801 44.8598 91.2801 47.2998 89.7801 48.7898L56.5001 82.0698C55.7501 82.8198 54.7601 83.1998 53.7801 83.1998Z" fill="white"/>
</svg>
