<svg width="24" height="24" viewBox="0 0 24 24" fill="none" xmlns="http://www.w3.org/2000/svg">
<path fill-rule="evenodd" clip-rule="evenodd" d="M20.3086 19.5743C20.6908 19.5743 21.0009 19.8937 21.0009 20.2871C21.0009 20.6806 20.6908 20.9999 20.3086 20.9999H13.6134C13.2312 20.9999 12.921 20.6806 12.921 20.2871C12.921 19.8937 13.2312 19.5743 13.6134 19.5743H20.3086ZM16.0308 3.62121C16.0769 3.65828 17.6213 4.89378 17.6213 4.89378C18.1825 5.23782 18.621 5.85273 18.7872 6.58072C18.9524 7.30112 18.8324 8.04432 18.4475 8.67253C18.4449 8.67672 18.4423 8.68085 18.4334 8.69317L18.4265 8.70269C18.364 8.78747 18.0924 9.14106 16.7215 10.9093C16.7088 10.9325 16.6944 10.9542 16.6786 10.9753C16.6555 11.0064 16.6303 11.035 16.6035 11.061C16.51 11.1822 16.4112 11.3096 16.3074 11.4435L16.097 11.7148C15.6628 12.2745 15.1479 12.9383 14.537 13.7256L14.2235 14.1296C13.0441 15.6494 11.5336 17.5953 9.59859 20.0876C9.17489 20.6313 8.5398 20.9477 7.85762 20.9563L4.49845 21H4.48922C4.1689 21 3.89012 20.7738 3.81535 20.4516L3.05933 17.1528C2.90333 16.4695 3.05841 15.7643 3.48396 15.2169L12.1796 4.01943C12.1833 4.01563 12.1861 4.01087 12.1897 4.00707C13.1433 2.83334 14.8677 2.66037 16.0308 3.62121ZM11.2101 7.54951L4.56491 16.1074C4.40706 16.3108 4.34891 16.5731 4.40706 16.825L5.0357 19.5668L7.84101 19.5307C8.10778 19.5279 8.35425 19.4053 8.51764 19.1962C9.35903 18.1123 10.4165 16.7501 11.5037 15.3494L11.8884 14.8538L12.2737 14.3573C13.2934 13.0436 14.3007 11.7455 15.1435 10.659L11.2101 7.54951ZM13.2559 4.91659L12.075 6.43565L16.0082 9.5443C16.7652 8.56804 17.2632 7.92504 17.3093 7.86375C17.4607 7.61094 17.5197 7.2536 17.4404 6.90956C17.3591 6.55696 17.1459 6.25759 16.8385 6.06656C16.773 6.01999 15.2175 4.77689 15.1695 4.73792C14.5843 4.25512 13.7304 4.33876 13.2559 4.91659Z" fill="#666672"/>
</svg>
