<svg width="24" height="24" viewBox="0 0 24 24" fill="none" xmlns="http://www.w3.org/2000/svg">
<path fill-rule="evenodd" clip-rule="evenodd" d="M15.6544 4.78185C16.6385 3.79776 18.234 3.79776 19.2181 4.78185C20.2022 5.76594 20.2022 7.36147 19.2181 8.34556L11.7003 15.8634C11.3951 16.1686 11.0166 16.3903 10.6011 16.5072L7.45511 17.3926C7.21579 17.4599 6.95876 17.3928 6.78297 17.217C6.60718 17.0412 6.54003 16.7842 6.60738 16.5448L7.49275 13.3989C7.60968 12.9834 7.83138 12.6049 8.13659 12.2997L15.6544 4.78185ZM18.2462 5.75377C17.7989 5.30646 17.0737 5.30646 16.6263 5.75377L9.10851 13.2716C8.96978 13.4103 8.869 13.5824 8.81585 13.7712L8.2625 15.7375L10.2287 15.1841C10.4176 15.131 10.5896 15.0302 10.7284 14.8915L18.2462 7.37364C18.6935 6.92632 18.6935 6.20108 18.2462 5.75377Z" fill="#666672"/>
<path fill-rule="evenodd" clip-rule="evenodd" d="M12.8803 5.96411H6.35259C3.94872 5.96411 2 7.91283 2 10.3167V17.6474C2 20.0512 3.94872 22 6.35259 22H13.6833C16.0871 22 18.0359 20.0512 18.0359 17.6474V11.1197L16.6613 12.4942V17.6474C16.6613 19.2921 15.328 20.6255 13.6833 20.6255H6.35259C4.70784 20.6255 3.3745 19.2921 3.3745 17.6474V10.3167C3.3745 8.67195 4.70784 7.33861 6.35259 7.33861H11.5058L12.8803 5.96411Z" fill="#666672"/>
</svg>
