<svg width="35" height="24" viewBox="0 0 35 24" fill="none" xmlns="http://www.w3.org/2000/svg">
<path d="M6.95562 10.0903V12.0111H9.63218C9.5782 12.3173 9.46263 12.6095 9.29237 12.8703C9.12211 13.1311 8.90065 13.3552 8.64124 13.529C8.19406 13.834 7.62312 14.0077 6.95374 14.0077C5.65999 14.0077 4.5664 13.1272 4.17406 11.9487C3.96875 11.3286 3.96875 10.6596 4.17406 10.0396C4.5664 8.85409 5.65999 7.97358 6.95374 7.97358C7.30443 7.96709 7.65291 8.02995 7.97891 8.15849C8.30491 8.28703 8.60191 8.47869 8.85265 8.72231L10.272 7.29655C9.37808 6.45286 8.18865 5.98794 6.95562 6.00024C6.03322 6.00375 5.13018 6.26334 4.34844 6.74968C3.5667 7.23602 2.93739 7.92976 2.53156 8.75258C2.18198 9.44795 2 10.2145 2 10.9918C2 11.769 2.18198 12.5356 2.53156 13.231V13.238C2.9375 14.0603 3.56698 14.7534 4.3488 15.2389C5.13062 15.7244 6.0336 15.9829 6.95562 15.9852C8.29015 15.9852 9.4189 15.5415 10.2369 14.7788C11.1744 13.9122 11.7092 12.6299 11.7092 11.1045C11.7098 10.7648 11.6823 10.4256 11.6272 10.0903H6.95562ZM25.2092 9.90408C24.7344 9.46732 24.0875 9.24568 23.2691 9.24568C22.2162 9.24568 21.425 9.63402 20.9019 10.4032L21.8792 11.0207C22.237 10.493 22.7255 10.2291 23.3445 10.2291C23.7387 10.23 24.1185 10.3758 24.4109 10.6384C24.5534 10.7613 24.6677 10.9131 24.7461 11.0837C24.8244 11.2542 24.865 11.4395 24.8652 11.6269V11.8835C24.4386 11.6474 23.9019 11.5226 23.2414 11.5226C22.4708 11.5226 21.8516 11.7033 21.3903 12.0707C20.9291 12.438 20.6956 12.9232 20.6956 13.5402C20.6884 13.8159 20.7433 14.0898 20.8564 14.3417C20.9695 14.5936 21.1378 14.8172 21.3491 14.9962C21.7827 15.3846 22.3334 15.5787 22.9798 15.5787C23.7434 15.5787 24.3491 15.2388 24.808 14.5595H24.8548V15.3846H25.9147V11.72C25.918 10.9494 25.6841 10.339 25.2092 9.90408ZM24.3078 14.0622C24.1453 14.2265 23.9514 14.357 23.7376 14.4462C23.5238 14.5354 23.2943 14.5815 23.0623 14.5818C22.7506 14.587 22.4468 14.4841 22.2031 14.2908C22.0894 14.2062 21.9973 14.0962 21.934 13.9699C21.8708 13.8435 21.8382 13.7041 21.8389 13.563C21.8389 13.2371 21.9898 12.9665 22.2861 12.7519C22.5823 12.5372 22.9672 12.4259 23.4144 12.4259C24.0313 12.4185 24.5141 12.5582 24.8581 12.8348C24.8581 13.3064 24.6725 13.7153 24.3078 14.0622ZM19.918 7.45021C19.6692 7.20319 19.3728 7.00863 19.0465 6.87821C18.7202 6.74779 18.3707 6.68419 18.0191 6.69123H15.0814V15.3864H16.1891V11.8644H18.0172C18.7672 11.8644 19.4 11.6148 19.9161 11.1226C19.9573 11.0812 19.9986 11.0393 20.0403 10.9978C20.492 10.5082 20.7322 9.86202 20.7093 9.19826C20.6865 8.53451 20.4023 7.90618 19.918 7.44835V7.45021ZM19.1408 10.3478C19.0011 10.4959 18.8313 10.6127 18.6427 10.6904C18.454 10.7681 18.2509 10.805 18.0467 10.7986H16.1891V7.76218H18.0467C18.4431 7.76076 18.824 7.91527 19.1061 8.19196C19.3931 8.47584 19.5572 8.85972 19.5637 9.26197C19.5702 9.66422 19.4185 10.0531 19.1408 10.346V10.3478ZM30.7958 9.43845L29.083 13.7083H29.0619L27.3078 9.43845H26.1036L28.5312 15.0051L27.1555 18H28.2969L32 9.43845H30.7958Z" fill="black"/>
</svg>
