<svg width="640" height="258" viewBox="0 0 640 258" fill="none" xmlns="http://www.w3.org/2000/svg">
<path d="M105.72 87.9999V129.25H162.82C161.668 135.826 159.203 142.102 155.57 147.703C151.938 153.305 147.214 158.116 141.68 161.85C132.14 168.4 119.96 172.13 105.68 172.13C78.0798 172.13 54.7498 153.22 46.3798 127.91C42 114.594 42 100.226 46.3798 86.9099C54.7498 61.4499 78.0798 42.5399 105.68 42.5399C113.161 42.4005 120.595 43.7504 127.55 46.511C134.505 49.2716 140.841 53.3877 146.19 58.6199L176.47 27.9999C157.399 9.88057 132.024 -0.104291 105.72 0.159897C86.042 0.235407 66.7771 5.81026 50.1 16.2551C33.4229 26.7 19.9976 41.5989 11.3398 59.2699C3.88221 74.2038 0 90.6675 0 107.36C0 124.052 3.88221 140.516 11.3398 155.45V155.6C20 173.261 33.4288 188.146 50.1077 198.572C66.7866 208.999 86.0502 214.551 105.72 214.6C134.19 214.6 158.27 205.07 175.72 188.69C195.72 170.08 207.13 142.54 207.13 109.78C207.141 102.484 206.556 95.2 205.38 87.9999H105.72ZM495.13 83.9999C485 74.6199 471.2 69.8599 453.74 69.8599C431.28 69.8599 414.4 78.1999 403.24 94.7199L424.09 107.98C431.723 96.6466 442.143 90.9799 455.35 90.9799C463.758 91.0004 471.862 94.1314 478.1 99.7699C481.14 102.409 483.578 105.671 485.249 109.333C486.921 112.995 487.787 116.974 487.79 121V126.51C478.69 121.44 467.24 118.76 453.15 118.76C436.71 118.76 423.5 122.64 413.66 130.53C403.82 138.42 398.84 148.84 398.84 162.09C398.686 168.012 399.858 173.893 402.27 179.303C404.682 184.713 408.273 189.516 412.78 193.36C422.03 201.7 433.78 205.87 447.57 205.87C463.86 205.87 476.78 198.57 486.57 183.98H487.57V201.7H510.18V123C510.25 106.45 505.26 93.3399 495.13 83.9999ZM475.9 173.3C472.432 176.828 468.297 179.632 463.736 181.548C459.174 183.464 454.277 184.454 449.33 184.46C442.679 184.571 436.198 182.361 431 178.21C428.574 176.392 426.608 174.032 425.259 171.318C423.91 168.603 423.215 165.611 423.23 162.58C423.23 155.58 426.45 149.77 432.77 145.16C439.09 140.55 447.3 138.16 456.84 138.16C470 138 480.3 141 487.64 146.94C487.64 157.07 483.68 165.85 475.9 173.3ZM382.25 31.2999C376.943 25.9948 370.62 21.8165 363.658 19.0155C356.697 16.2145 349.242 14.8487 341.74 14.9999H279.07V201.74H302.7V126.1H341.7C357.7 126.1 371.2 120.74 382.21 110.17C383.09 109.28 383.97 108.38 384.86 107.49C394.496 96.9737 399.621 83.0965 399.133 68.8415C398.644 54.5866 392.582 41.0924 382.25 31.2599V31.2999ZM365.67 93.5299C362.691 96.7097 359.068 99.2178 355.044 100.887C351.019 102.556 346.685 103.348 342.33 103.21H302.7V37.9999H342.33C350.787 37.9693 358.912 41.2877 364.93 47.2299C371.052 53.3266 374.554 61.5708 374.693 70.2096C374.831 78.8485 371.594 87.2005 365.67 93.4899V93.5299ZM614.31 73.9999L577.77 165.7H577.32L539.9 73.9999H514.21L566 193.55L536.65 257.87H561L640 73.9999H614.31Z" fill="black"/>
</svg>
