<svg width="14" height="18" viewBox="0 0 14 18" fill="none" xmlns="http://www.w3.org/2000/svg">
<path d="M10.5 7V7.5H11H12.8C12.8965 7.5 13.0769 7.5694 13.2537 7.74597C13.4306 7.92252 13.5 8.10252 13.5 8.199V16C13.5 16.1492 13.4389 16.3331 13.3159 16.5017C13.193 16.6704 13.037 16.7844 12.8952 16.8296L12.8931 16.8303L11.7038 17.2151C11.1149 17.387 10.5064 17.4828 9.89313 17.5H4.10696C3.4933 17.4826 2.88436 17.3872 2.29481 17.216L1.10482 16.8312L1.10392 16.831C0.962314 16.7855 0.806543 16.6712 0.683807 16.5024C0.561083 16.3336 0.5 16.1495 0.5 16V8.199C0.5 8.04661 0.566281 7.85341 0.686058 7.70069C0.807205 7.54622 0.926117 7.5 1 7.5H3H3.5V7V4.6C3.5 3.21939 3.8188 2.20204 4.38192 1.53662C4.93324 0.885144 5.7792 0.5 7 0.5C8.22025 0.5 9.06625 0.885116 9.61773 1.53666C10.181 2.20211 10.5 3.21947 10.5 4.6V7ZM9 7.5H9.5V7V4.199C9.5 3.38679 9.27489 2.70024 8.81414 2.21379C8.3506 1.7244 7.70764 1.5 7 1.5C6.29236 1.5 5.6494 1.7244 5.18586 2.21379C4.72511 2.70024 4.5 3.38679 4.5 4.199V7V7.5H5H9Z" stroke="#69AF6B"/>
</svg>
