<svg width="14" height="11" viewBox="0 0 14 11" fill="none" xmlns="http://www.w3.org/2000/svg">
<path d="M12.4942 0L13.9998 1.72057L11.3392 3.44158H8.93549C6.65155 3.44158 4.57038 5.29102 4.28418 7.57494L4.71546 4.13334C5.00151 1.85055 7.08396 0 9.36673 0H12.4942Z" fill="url(#paint0_linear_3723_21667)"/>
<path d="M10.2986 3.44141C9.8544 3.45266 9.42854 3.62074 9.09641 3.91589C8.76428 4.21103 8.54732 4.6142 8.48396 5.05398L8.10852 8.05005C8.00353 8.77722 7.64468 9.44381 7.09548 9.93185C6.54628 10.4199 5.84215 10.6979 5.10768 10.7167C4.95335 10.7207 4.80006 10.6905 4.65869 10.6285C4.51732 10.5665 4.39135 10.4741 4.28972 10.3579C4.18809 10.2417 4.1133 10.1046 4.07067 9.9562C4.02803 9.80784 4.0186 9.6519 4.04304 9.49947L4.28423 7.57477C4.57028 5.29198 6.65277 3.44141 8.93556 3.44141H10.2986Z" fill="url(#paint1_linear_3723_21667)"/>
<path d="M6.70494 0.000488281C5.4154 0.765289 4.47037 1.99781 4.06644 3.44166H1.50528L0 1.72071L2.65953 0.000488281H6.70494Z" fill="url(#paint2_linear_3723_21667)"/>
<defs>
<linearGradient id="paint0_linear_3723_21667" x1="4.75884" y1="3.78748" x2="13.602" y2="4.89553" gradientUnits="userSpaceOnUse">
<stop stop-color="#ACD7A3"/>
<stop offset="0.1646" stop-color="#93D0A2"/>
<stop offset="0.5147" stop-color="#54BCA0"/>
<stop offset="0.9337" stop-color="#00A39E"/>
</linearGradient>
<linearGradient id="paint1_linear_3723_21667" x1="4.267" y1="10.3967" x2="9.07121" y2="2.67749" gradientUnits="userSpaceOnUse">
<stop stop-color="#ACD7A3"/>
<stop offset="0.1646" stop-color="#93D0A2"/>
<stop offset="0.5147" stop-color="#54BCA0"/>
<stop offset="0.9337" stop-color="#00A39E"/>
</linearGradient>
<linearGradient id="paint2_linear_3723_21667" x1="1.52869" y1="3.45619" x2="4.52415" y2="-1.35678" gradientUnits="userSpaceOnUse">
<stop stop-color="#ACD7A3"/>
<stop offset="0.1646" stop-color="#93D0A2"/>
<stop offset="0.5147" stop-color="#54BCA0"/>
<stop offset="0.9337" stop-color="#00A39E"/>
</linearGradient>
</defs>
</svg>
