<svg width="32" height="32" viewBox="0 0 32 32" fill="none" xmlns="http://www.w3.org/2000/svg">
<path opacity="0.5" d="M20.3641 24.9706C18.5899 24.9709 16.8554 24.445 15.38 23.4595C13.9047 22.4741 12.7547 21.0732 12.0755 19.4341C11.3962 17.7951 11.2183 15.9914 11.5642 14.2512C11.9101 12.511 12.7642 10.9124 14.0186 9.65769C15.273 8.40293 16.8713 7.54832 18.6114 7.20193C20.3514 6.85554 22.1552 7.03292 23.7945 7.71164C25.4337 8.39037 26.8349 9.53995 27.8209 11.015C28.8068 12.4901 29.3332 14.2244 29.3334 15.9986V16C29.331 18.3781 28.3852 20.6582 26.7037 22.34C25.0222 24.0217 22.7423 24.9678 20.3641 24.9706Z" fill="#EBA43E"/>
<path d="M11.6362 24.9706C9.86197 24.9706 8.12758 24.4445 6.65236 23.4588C5.17714 22.4731 4.02735 21.0721 3.34838 19.4329C2.66941 17.7937 2.49177 15.99 2.8379 14.2499C3.18404 12.5097 4.03841 10.9113 5.29298 9.65675C6.54755 8.40218 8.14597 7.5478 9.88611 7.20167C11.6262 6.85553 13.4299 7.03318 15.0691 7.71215C16.7083 8.39112 18.1093 9.54091 19.095 11.0161C20.0807 12.4914 20.6069 14.2257 20.6069 16C20.6044 18.3784 19.6585 20.6587 17.9767 22.3405C16.2949 24.0222 14.0146 24.9682 11.6362 24.9706Z" fill="#D7302E"/>
</svg>
