<svg width="24" height="24" viewBox="0 0 24 24" fill="none" xmlns="http://www.w3.org/2000/svg">
<path fill-rule="evenodd" clip-rule="evenodd" d="M1 12C1 7.02944 5.00861 3 9.95349 3H14.0465C18.9914 3 23 7.02944 23 12C23 16.9706 18.9914 21 14.0465 21H3.81395C2.25985 21 1 19.7336 1 18.1714V12ZM9.95349 4.54286C5.85631 4.54286 2.53488 7.88153 2.53488 12V18.1714C2.53488 18.8815 3.10754 19.4571 3.81395 19.4571H14.0465C18.1437 19.4571 21.4651 16.1185 21.4651 12C21.4651 7.88153 18.1437 4.54286 14.0465 4.54286H9.95349Z" fill="#666672" stroke="#666672" stroke-width="0.3" stroke-linejoin="round"/>
<path d="M13.0233 12C13.0233 12.5681 12.5651 13.0286 12 13.0286C11.4349 13.0286 10.9767 12.5681 10.9767 12C10.9767 11.4319 11.4349 10.9714 12 10.9714C12.5651 10.9714 13.0233 11.4319 13.0233 12Z" fill="#666672" stroke="#666672" stroke-width="0.3"/>
<path d="M17.1163 12C17.1163 12.5681 16.6582 13.0286 16.0931 13.0286C15.528 13.0286 15.0698 12.5681 15.0698 12C15.0698 11.4319 15.528 10.9714 16.0931 10.9714C16.6582 10.9714 17.1163 11.4319 17.1163 12Z" fill="#666672" stroke="#666672" stroke-width="0.3"/>
<path d="M8.93018 12C8.93018 12.5681 8.47205 13.0286 7.90692 13.0286C7.34179 13.0286 6.88367 12.5681 6.88367 12C6.88367 11.4319 7.34179 10.9714 7.90692 10.9714C8.47205 10.9714 8.93018 11.4319 8.93018 12Z" fill="#666672" stroke="#666672" stroke-width="0.3"/>
</svg>
