<svg width="150" height="150" viewBox="0 0 150 150" fill="none" xmlns="http://www.w3.org/2000/svg">
<path d="M116.25 56.8875C115.343 52.7014 113.796 48.6805 111.661 44.9672L140.625 16.0031L134.002 9.375L9.37508 134.002L16.0032 140.625L39.4407 117.188H110.156C117.709 117.195 124.995 114.397 130.6 109.335C136.205 104.273 139.729 97.3091 140.489 89.7949C141.248 82.2807 139.188 74.7524 134.709 68.6714C130.23 62.5905 123.651 58.3907 116.25 56.8875ZM110.156 107.812H48.8157L104.728 51.9C106.168 54.9687 107.117 58.2446 107.541 61.6078L108.005 65.4141L111.825 65.7141C117.267 66.1284 122.337 68.6374 125.967 72.7133C129.597 76.7892 131.504 82.1142 131.288 87.5678C131.072 93.0215 128.749 98.1788 124.808 101.955C120.866 105.73 115.614 107.83 110.156 107.812ZM20.1376 109.917L26.8501 103.209C23.5025 100.606 21.0219 97.0505 19.7352 93.0099C18.4485 88.9693 18.4161 84.6337 19.6422 80.5744C20.8683 76.515 23.2953 72.9223 26.6036 70.2696C29.912 67.6169 33.9463 66.0286 38.1751 65.7141L42.0001 65.4141L42.4641 61.6078C43.1296 56.1423 45.1622 50.9328 48.3741 46.4608C51.5859 41.9888 55.8734 38.3987 60.84 36.0224C65.8067 33.646 71.2923 32.5602 76.7897 32.8651C82.2871 33.1701 87.6189 34.8561 92.2923 37.7672L99.0563 31.0031C93.3482 27.0243 86.7434 24.5216 79.8319 23.7184C72.9204 22.9153 65.9177 23.8367 59.4493 26.4005C52.9808 28.9643 47.2483 33.0905 42.7638 38.4105C38.2792 43.7305 35.1824 50.0786 33.7501 56.8875C28.1502 58.0227 22.9831 60.7119 18.8407 64.6473C14.6982 68.5828 11.7478 73.6053 10.3272 79.1397C8.90671 84.6741 9.0735 90.4967 10.8085 95.9407C12.5435 101.385 15.7766 106.23 20.1376 109.922V109.917Z" fill="#EA4613"/>
</svg>
