<svg width="24" height="24" viewBox="0 0 24 24" fill="none" xmlns="http://www.w3.org/2000/svg">
<path fill-rule="evenodd" clip-rule="evenodd" d="M9.96126 4.98111C9.6935 5.25923 9.49939 5.7765 9.49939 6.8125C9.49939 7.69485 9.68272 8.52196 10.0532 9.10274C10.3982 9.64343 10.917 10 11.7494 10C12.5818 10 13.1006 9.64343 13.4455 9.10274C13.8161 8.52196 13.9994 7.69485 13.9994 6.8125C13.9994 5.7765 13.8053 5.25923 13.5375 4.98111C13.2765 4.70995 12.7833 4.5 11.7494 4.5C10.7154 4.5 10.2223 4.70995 9.96126 4.98111ZM8.88067 3.94076C9.56732 3.22755 10.5742 3 11.7494 3C12.9246 3 13.9315 3.22755 14.6181 3.94076C15.2981 4.64702 15.4994 5.661 15.4994 6.8125C15.4994 7.86314 15.2873 9.00479 14.7101 9.90951C14.1073 10.8543 13.1261 11.5 11.7494 11.5C10.3727 11.5 9.39145 10.8543 8.78868 9.90951C8.21149 9.00479 7.99939 7.86314 7.99939 6.8125C7.99939 5.661 8.20071 4.64702 8.88067 3.94076Z" fill="#666672"/>
<path fill-rule="evenodd" clip-rule="evenodd" d="M8.5514 13.5C7.41811 13.5 6.49939 14.4187 6.49939 15.552V16.25C6.49939 17.7688 7.73061 19 9.24939 19H14.2494C15.7682 19 16.9994 17.7688 16.9994 16.25V15.552C16.9994 14.4187 16.0807 13.5 14.9474 13.5C14.7621 13.5 14.5856 13.5789 14.4621 13.717L13.7991 14.4583C12.7059 15.6805 10.7928 15.6805 9.69964 14.4583L9.03664 13.717C8.91314 13.5789 8.73666 13.5 8.5514 13.5ZM4.99939 15.552C4.99939 13.5903 6.58968 12 8.5514 12C9.16351 12 9.74662 12.2608 10.1547 12.717L10.8177 13.4583C11.3146 14.0139 12.1842 14.0139 12.6811 13.4583L13.3441 12.717C13.7522 12.2608 14.3353 12 14.9474 12C16.9091 12 18.4994 13.5903 18.4994 15.552V16.25C18.4994 18.5972 16.5966 20.5 14.2494 20.5H9.24939C6.90218 20.5 4.99939 18.5972 4.99939 16.25V15.552Z" fill="#666672"/>
<path fill-rule="evenodd" clip-rule="evenodd" d="M16.4464 8.96462C16.3115 9.45946 16.1289 9.93158 15.8931 10.3641C16.151 10.452 16.4365 10.5005 16.75 10.5005C17.7832 10.5005 18.513 9.97406 18.9467 9.24572C19.3565 8.5576 19.5 7.70514 19.5 6.93799C19.5 6.10802 19.3678 5.32191 18.8602 4.75702C18.3336 4.17097 17.569 4.00049 16.75 4.00049C16.6213 4.00049 16.4938 4.0047 16.3685 4.01409C16.535 4.44189 16.6434 4.9359 16.7006 5.50077C16.7168 5.50058 16.7333 5.50049 16.75 5.50049C17.4038 5.50049 17.6393 5.64251 17.7445 5.75958C17.8687 5.89782 18 6.20546 18 6.93799C18 7.55155 17.88 8.10534 17.6579 8.47829C17.4598 8.81102 17.1897 9.00049 16.75 9.00049C16.6385 9.00049 16.5378 8.98828 16.4464 8.96462Z" fill="#666672"/>
<path fill-rule="evenodd" clip-rule="evenodd" d="M19.7488 18.4618C21.3063 18.2213 22.4988 16.8749 22.4988 15.25V15.1292C22.4988 13.401 21.0978 12 19.3696 12C19.0088 12 18.658 12.1006 18.355 12.2866C18.7046 12.6505 18.9997 13.0673 19.2271 13.5238C19.2725 13.5082 19.3207 13.5 19.3696 13.5C20.2694 13.5 20.9988 14.2294 20.9988 15.1292V15.25C20.9988 16.0428 20.4717 16.7124 19.7488 16.9275V18.4618Z" fill="#666672"/>
<path fill-rule="evenodd" clip-rule="evenodd" d="M5.14381 12.2866C4.84079 12.1006 4.49001 12 4.12916 12C2.40097 12 1 13.401 1 15.1292V15.25C1 16.8749 2.19246 18.2213 3.75 18.4618V16.9275C3.02713 16.7124 2.5 16.0428 2.5 15.25V15.1292C2.5 14.2294 3.2294 13.5 4.12916 13.5C4.17811 13.5 4.22625 13.5082 4.27173 13.5238C4.49908 13.0673 4.79416 12.6505 5.14381 12.2866Z" fill="#666672"/>
<path fill-rule="evenodd" clip-rule="evenodd" d="M7.13157 4.01409C7.0062 4.0047 6.87877 4.00049 6.75 4.00049C5.93102 4.00049 5.16646 4.17097 4.63985 4.75702C4.13225 5.32191 4 6.10802 4 6.93799C4 7.70514 4.14357 8.5576 4.5533 9.24572C4.987 9.97406 5.71685 10.5005 6.75 10.5005C7.0635 10.5005 7.34907 10.452 7.60692 10.3641C7.37117 9.93158 7.18853 9.45946 7.0536 8.96462C6.96226 8.98828 6.86159 9.00049 6.75 9.00049C6.31039 9.00049 6.04025 8.81102 5.84213 8.47829C5.62005 8.10534 5.5 7.55155 5.5 6.93799C5.5 6.20546 5.63137 5.89782 5.75558 5.75958C5.86078 5.64251 6.09622 5.50049 6.75 5.50049C6.76675 5.50049 6.78322 5.50058 6.79942 5.50077C6.85668 4.9359 6.96505 4.44189 7.13157 4.01409Z" fill="#666672"/>
</svg>
