<svg width="24" height="24" viewBox="0 0 24 24" fill="none" xmlns="http://www.w3.org/2000/svg">
<path d="M10.8535 4.71018C11.2019 3.58256 12.7981 3.58256 13.1465 4.71017L14.3354 8.55754C14.4908 9.06035 14.9556 9.40325 15.4819 9.40325H19.4524C20.6003 9.40325 21.0931 10.86 20.1809 11.5568L16.8668 14.0886C16.4672 14.3939 16.3003 14.916 16.4488 15.3965L17.6899 19.413C18.0349 20.5292 16.7434 21.4301 15.8149 20.7209L12.7285 18.363C12.2984 18.0345 11.7016 18.0345 11.2715 18.363L8.18506 20.7209C7.25663 21.4301 5.96513 20.5292 6.31007 19.413L7.55124 15.3965C7.69972 14.916 7.53284 14.3939 7.13321 14.0886L3.81908 11.5568C2.90694 10.86 3.39971 9.40325 4.54755 9.40325H8.51808C9.04435 9.40325 9.50921 9.06035 9.66459 8.55754L10.8535 4.71018Z" fill="#E7B60B"/>
</svg>
