<svg width="24" height="24" viewBox="0 0 24 24" fill="none" xmlns="http://www.w3.org/2000/svg">
<path d="M11.5 21.825V18.825C7.325 18.6083 4 15.1417 4 10.9167C4 6.55 7.55 3 11.9167 3C16.2833 3 19.8333 6.55 19.8333 10.9167C19.8333 15.0417 16.9667 19.1917 12.6917 21.25L11.5 21.825ZM11.9167 4.66667C8.46667 4.66667 5.66667 7.46667 5.66667 10.9167C5.66667 14.3667 8.46667 17.1667 11.9167 17.1667H13.1667V19.0833C16.2 17.1667 18.1667 14.0167 18.1667 10.9167C18.1667 7.46667 15.3667 4.66667 11.9167 4.66667ZM11.0833 14.25H12.75V15.9167H11.0833V14.25ZM12.75 13H11.0833C11.0833 10.2917 13.5833 10.5 13.5833 8.83333C13.5833 7.91667 12.8333 7.16667 11.9167 7.16667C11 7.16667 10.25 7.91667 10.25 8.83333H8.58333C8.58333 6.99167 10.075 5.5 11.9167 5.5C13.7583 5.5 15.25 6.99167 15.25 8.83333C15.25 10.9167 12.75 11.125 12.75 13Z" fill="#666672"/>
</svg>
