<svg width="30" height="30" viewBox="0 0 30 30" fill="none" xmlns="http://www.w3.org/2000/svg">
<path fill-rule="evenodd" clip-rule="evenodd" d="M9 3C5.68629 3 3 5.68629 3 9V21C3 24.3137 5.68629 27 9 27H21C24.3137 27 27 24.3137 27 21V9C27 5.68629 24.3137 3 21 3H9ZM15 8.91681C15.4142 8.91681 15.75 9.2526 15.75 9.66681V14.2502H20.3333C20.7475 14.2502 21.0833 14.586 21.0833 15.0002C21.0833 15.4144 20.7475 15.7502 20.3333 15.7502H15.75V20.3335C15.75 20.7477 15.4142 21.0835 15 21.0835C14.5858 21.0835 14.25 20.7477 14.25 20.3335V15.7502H9.66663C9.25242 15.7502 8.91663 15.4144 8.91663 15.0002C8.91663 14.586 9.25242 14.2502 9.66663 14.2502H14.25V9.66681C14.25 9.2526 14.5858 8.91681 15 8.91681Z" fill="#69AF6B"/>
</svg>
