<svg width="30" height="30" viewBox="0 0 30 30" fill="none" xmlns="http://www.w3.org/2000/svg">
<path fill-rule="evenodd" clip-rule="evenodd" d="M12.1875 20.3413C12.1875 21.8946 13.4467 23.1538 15 23.1538V23.1538C16.5533 23.1538 17.8125 21.8946 17.8125 20.3413V17.8413C17.8125 16.288 16.5533 15.0288 15 15.0288C13.4467 15.0288 12.1875 16.288 12.1875 17.8413V20.3413ZM10.3125 27.1875H10C6.72081 27.1875 4.0625 24.5292 4.0625 21.25V13.321C4.0625 11.7463 4.68806 10.2361 5.80155 9.1226L10.8016 4.1226C13.1203 1.80386 16.8797 1.80386 19.1984 4.1226L24.1984 9.1226C25.3119 10.2361 25.9375 11.7463 25.9375 13.321V21.25C25.9375 24.5292 23.2792 27.1875 20 27.1875H19.6875H18.75H11.25H10.3125Z" stroke="#83848A" stroke-width="1.5"/>
</svg>
