<svg width="30" height="30" viewBox="0 0 30 30" fill="none" xmlns="http://www.w3.org/2000/svg">
<path fill-rule="evenodd" clip-rule="evenodd" d="M9.25 5H9C6.79086 5 5 6.79086 5 9V23.5C5 25.7091 6.79086 27.5 9 27.5H21C23.2091 27.5 25 25.7091 25 23.5V9C25 6.79086 23.2091 5 21 5H20.75C20.75 6.79493 19.2949 8.25 17.5 8.25H12.5C10.7051 8.25 9.25 6.79493 9.25 5ZM14.25 12.5C14.25 12.0858 14.5858 11.75 15 11.75H20C20.4142 11.75 20.75 12.0858 20.75 12.5C20.75 12.9142 20.4142 13.25 20 13.25H15C14.5858 13.25 14.25 12.9142 14.25 12.5ZM10 11.75C9.58579 11.75 9.25 12.0858 9.25 12.5C9.25 12.9142 9.58579 13.25 10 13.25H11.25C11.6642 13.25 12 12.9142 12 12.5C12 12.0858 11.6642 11.75 11.25 11.75H10ZM14.25 17.5C14.25 17.0858 14.5858 16.75 15 16.75H20C20.4142 16.75 20.75 17.0858 20.75 17.5C20.75 17.9142 20.4142 18.25 20 18.25H15C14.5858 18.25 14.25 17.9142 14.25 17.5ZM10 16.75C9.58579 16.75 9.25 17.0858 9.25 17.5C9.25 17.9142 9.58579 18.25 10 18.25H11.25C11.6642 18.25 12 17.9142 12 17.5C12 17.0858 11.6642 16.75 11.25 16.75H10ZM14.25 22.5C14.25 22.0858 14.5858 21.75 15 21.75H20C20.4142 21.75 20.75 22.0858 20.75 22.5C20.75 22.9142 20.4142 23.25 20 23.25H15C14.5858 23.25 14.25 22.9142 14.25 22.5ZM10 21.75C9.58579 21.75 9.25 22.0858 9.25 22.5C9.25 22.9142 9.58579 23.25 10 23.25H11.25C11.6642 23.25 12 22.9142 12 22.5C12 22.0858 11.6642 21.75 11.25 21.75H10Z" fill="#69AF6B"/>
<path fill-rule="evenodd" clip-rule="evenodd" d="M10.75 5C10.75 4.0335 11.5335 3.25 12.5 3.25H17.5C18.4665 3.25 19.25 4.0335 19.25 5C19.25 5.9665 18.4665 6.75 17.5 6.75H12.5C11.5335 6.75 10.75 5.9665 10.75 5Z" fill="#69AF6B"/>
</svg>
